<?xml version="1.0" standalone="no"?>
<!DOCTYPE svg PUBLIC "-//W3C//DTD SVG 20010904//EN"
 "http://www.w3.org/TR/2001/REC-SVG-20010904/DTD/svg10.dtd">
<svg version="1.0" xmlns="http://www.w3.org/2000/svg"
 width="736.000000pt" height="414.000000pt" viewBox="0 0 736.000000 414.000000"
 preserveAspectRatio="xMidYMid meet">

<g transform="translate(0.000000,414.000000) scale(0.100000,-0.100000)"
fill="#000000" stroke="none">
<path d="M0 2070 l0 -2070 3680 0 3680 0 0 2070 0 2070 -3680 0 -3680 0 0
-2070z m3949 866 l101 -57 -2 -507 -3 -506 -100 -58 c-55 -32 -137 -79 -183
-104 l-82 -46 -53 30 c-198 113 -303 176 -309 186 -4 6 -8 104 -8 219 l0 207
53 34 c106 67 304 176 321 176 9 0 34 -11 56 -25 22 -14 44 -25 50 -25 6 0 10
88 10 254 0 140 3 262 6 271 9 22 24 17 143 -49z m-2085 -507 c89 -51 169 -99
179 -107 15 -14 17 -41 17 -289 0 -249 -1 -273 -17 -273 -25 0 -212 109 -223
131 -6 10 -10 76 -10 147 l0 130 -50 31 c-28 17 -59 31 -70 31 -11 0 -42 -14
-70 -31 l-50 -31 0 -134 c0 -129 -1 -136 -24 -157 -32 -29 -188 -117 -209
-117 -15 0 -17 25 -17 274 0 236 2 275 16 287 29 24 339 199 353 199 8 0 87
-41 175 -91z m980 3 c72 -41 149 -87 171 -101 l40 -27 3 -201 c2 -180 1 -202
-15 -221 -10 -11 -93 -64 -185 -117 -149 -85 -170 -94 -190 -84 -114 59 -341
195 -349 210 -12 23 -11 372 1 405 6 14 47 44 110 81 56 32 134 77 173 99 44
26 80 40 91 37 11 -3 78 -39 150 -81z m2023 -21 l168 -97 0 -75 0 -74 -105
-63 c-58 -34 -112 -61 -120 -60 -11 2 -16 21 -20 66 l-5 63 -57 32 -58 32 -57
-32 -58 -32 0 -76 0 -76 170 -99 c94 -54 171 -104 173 -112 2 -10 -38 -37
-113 -77 l-115 -63 -183 104 -182 104 -3 210 c-2 191 -1 212 15 226 41 37 349
207 365 202 10 -3 93 -49 185 -103z m998 11 c167 -97 170 -99 177 -138 12 -68
1 -396 -14 -410 -19 -19 -345 -204 -359 -204 -16 0 -139 72 -139 81 0 4 14 10
30 14 22 5 40 1 65 -15 19 -12 41 -20 49 -18 8 2 82 41 165 88 l150 85 1 192
0 192 -159 90 c-87 50 -160 91 -163 91 -6 0 -231 -129 -286 -164 l-41 -25 0
-178 c-1 -98 2 -183 7 -189 4 -6 30 -23 58 -39 37 -20 58 -26 77 -21 l27 6 0
195 c0 119 4 196 10 200 6 3 19 3 30 0 19 -6 20 -15 20 -196 0 -238 -8 -259
-96 -259 -42 0 -147 51 -168 82 -13 19 -16 56 -16 219 0 173 2 199 18 217 9
11 82 57 162 102 80 45 149 86 155 91 25 24 75 6 240 -89z m3 -189 c17 -13 32
-30 32 -38 0 -7 3 -20 6 -29 5 -13 -1 -16 -25 -16 -17 0 -31 5 -31 12 0 30
-33 48 -87 48 -64 0 -93 -13 -93 -41 0 -24 25 -34 105 -44 108 -12 158 -53
142 -116 -17 -67 -93 -98 -196 -81 -70 12 -105 37 -116 85 -7 25 -5 27 24 27
19 0 31 -5 31 -13 0 -32 41 -52 105 -52 69 0 95 14 95 51 0 18 -8 25 -37 33
-21 6 -48 11 -61 11 -13 0 -43 5 -68 11 -116 30 -109 150 11 180 49 12 127 -1
163 -28z m-1157 -80 c24 -15 29 -24 29 -58 0 -34 -5 -43 -29 -58 -37 -22 -47
-21 -82 4 -23 16 -29 28 -29 57 0 30 6 40 28 54 35 21 48 21 83 1z m-3196
-947 c38 -16 53 -52 36 -84 -8 -16 -7 -27 6 -49 42 -74 -41 -139 -151 -119
l-36 7 0 124 c0 89 3 125 13 128 25 11 99 6 132 -7z m232 1 c9 -6 41 -79 100
-234 4 -9 -6 -13 -30 -13 -29 0 -36 4 -41 25 -6 23 -11 25 -56 25 -45 0 -52
-3 -60 -25 -7 -19 -17 -25 -40 -25 -16 0 -30 1 -30 3 0 10 84 216 95 233 13
20 39 25 62 11z m329 0 c3 -3 3 -15 -1 -26 -5 -18 -12 -20 -46 -15 -74 12
-116 -46 -85 -119 16 -40 55 -55 100 -38 23 9 28 8 35 -12 13 -33 -2 -42 -75
-42 -61 0 -67 2 -94 32 -58 64 -48 165 20 211 29 20 44 23 87 20 29 -3 56 -7
59 -11z m104 -42 l5 -49 41 47 c29 35 49 49 72 52 18 2 32 0 32 -6 0 -5 -21
-32 -46 -59 l-47 -50 35 -42 c19 -24 43 -55 53 -70 l17 -28 -33 0 c-29 0 -41
8 -74 50 -22 27 -43 49 -47 50 -5 0 -8 -22 -8 -50 0 -49 -1 -50 -30 -50 l-30
0 0 123 c0 68 2 126 5 129 3 3 16 5 28 4 19 -1 23 -8 27 -51z m363 46 c4 -1 7
-10 7 -21 0 -15 -7 -20 -27 -21 -16 -1 -39 -2 -53 -3 -18 -1 -26 -7 -28 -23
-3 -21 0 -23 47 -23 48 0 51 -2 51 -25 0 -23 -3 -25 -50 -25 -49 0 -50 -1 -50
-30 l0 -30 60 0 c57 0 60 -1 60 -25 0 -25 -1 -25 -90 -25 l-90 0 0 124 0 125
43 3 c36 3 94 3 120 -1z m152 -47 c22 -27 48 -60 57 -74 17 -25 17 -24 17 47
1 63 4 72 21 78 11 3 24 3 30 0 6 -4 10 -58 10 -131 l0 -124 -28 0 c-22 0 -33
10 -59 53 -18 28 -43 66 -57 82 l-25 30 -1 -82 0 -83 -30 0 -30 0 0 123 c0 68
2 126 5 129 16 16 54 -4 90 -48z m327 46 c20 -6 49 -25 63 -42 24 -29 27 -38
23 -92 -4 -51 -9 -63 -36 -87 -19 -17 -48 -30 -75 -34 -52 -8 -107 1 -108 18
0 7 -1 63 -2 124 -2 93 1 113 13 117 29 8 85 6 122 -4z m377 -6 c53 -21 71
-51 71 -120 0 -50 -3 -59 -33 -89 -36 -36 -100 -53 -156 -40 l-31 7 0 123 c0
89 3 125 13 128 26 11 98 6 136 -9z m296 -13 c0 -22 -4 -24 -55 -25 -49 -1
-55 -4 -58 -23 -3 -20 2 -22 50 -25 46 -3 53 -6 56 -25 3 -20 -2 -22 -50 -25
-49 -3 -53 -5 -56 -30 -3 -27 -2 -27 60 -30 57 -3 63 -5 66 -25 3 -22 1 -23
-92 -23 l-96 0 0 123 c0 68 2 126 4 128 2 2 42 4 88 4 81 0 83 -1 83 -24z m90
18 c3 -3 17 -40 33 -82 15 -42 31 -78 36 -79 5 -2 21 32 35 74 30 87 31 90 66
93 32 4 31 -2 -9 -105 -63 -159 -57 -150 -92 -150 -28 0 -34 5 -54 53 -42 94
-78 196 -72 202 6 6 49 2 57 -6z m398 1 c4 0 7 -10 7 -23 0 -22 -4 -23 -55
-22 -51 2 -55 0 -55 -21 0 -20 6 -23 48 -26 40 -3 47 -6 50 -25 3 -21 0 -23
-47 -23 -50 0 -51 -1 -51 -30 l0 -30 60 0 c57 0 60 -1 60 -25 0 -25 -1 -25
-90 -25 l-90 0 0 128 0 127 77 -2 c43 -1 81 -2 86 -3z m101 4 c13 -5 16 -24
16 -105 l0 -98 58 -3 c50 -3 57 -6 60 -25 3 -22 1 -23 -87 -23 l-91 0 0 123
c0 139 3 147 44 131z m377 -32 c36 -40 46 -94 28 -146 -17 -48 -52 -76 -106
-83 -109 -14 -184 114 -120 208 31 46 62 61 121 56 40 -4 55 -10 77 -35z m221
28 c21 -6 42 -19 48 -30 14 -26 13 -83 -2 -102 -15 -18 -70 -38 -103 -38 -20
0 -23 -5 -21 -37 1 -35 -1 -38 -30 -41 l-31 -3 4 123 c2 81 8 125 16 130 17
11 75 10 119 -2z m209 -73 l33 -71 28 64 c32 72 49 90 78 83 15 -4 19 -18 24
-81 4 -43 9 -98 12 -124 5 -48 5 -48 -26 -48 -29 0 -30 2 -31 48 -1 26 -4 60
-8 77 -6 28 -7 27 -31 -33 -22 -54 -28 -62 -48 -60 -18 2 -29 16 -46 55 -12
29 -25 55 -29 59 -4 4 -7 -27 -7 -69 l0 -77 -30 0 c-29 0 -30 2 -30 43 0 24 3
79 7 121 5 67 9 79 27 86 33 12 41 4 77 -73z m399 53 c0 -26 -2 -26 -55 -25
-51 2 -55 1 -55 -21 0 -20 5 -23 48 -26 40 -3 47 -6 50 -25 3 -21 0 -23 -47
-23 -50 0 -51 -1 -51 -30 l0 -30 60 0 c57 0 60 -1 60 -25 0 -25 -1 -25 -90
-25 l-90 0 0 124 c0 90 3 126 13 129 6 2 45 4 85 4 71 0 72 -1 72 -27z m115
10 c7 -5 32 -37 56 -70 l44 -61 3 76 3 76 27 -3 27 -3 3 -127 3 -128 -28 0
c-24 1 -36 13 -83 83 l-55 82 -3 -83 -3 -82 -29 0 -30 0 0 123 c0 68 3 126 6
130 8 8 43 0 59 -13z m410 -10 c0 -22 -5 -25 -37 -28 l-38 -3 0 -100 0 -99
-30 0 -29 0 -3 103 -3 102 -33 -3 c-34 -4 -50 14 -39 43 5 11 27 14 109 12
103 -2 103 -2 103 -27z"/>
<path d="M3620 2196 l-55 -32 -3 -75 -3 -75 63 -33 63 -33 58 33 57 34 -2 74
-3 75 -55 33 c-30 18 -57 33 -60 33 -3 -1 -30 -16 -60 -34z"/>
<path d="M1424 1155 c-11 -27 4 -46 31 -41 33 6 45 14 45 31 0 26 -67 35 -76
10z"/>
<path d="M1424 1056 c-17 -45 29 -73 71 -42 16 12 18 18 9 33 -14 23 -72 30
-80 9z"/>
<path d="M1701 1109 c-16 -46 -14 -49 19 -49 34 0 34 1 18 47 -15 41 -23 42
-37 2z"/>
<path d="M2950 1165 c-1 -3 -1 -40 -1 -82 l-1 -78 33 2 c66 3 94 89 44 138
-21 21 -74 35 -75 20z"/>
<path d="M3310 1084 l0 -86 33 7 c49 11 67 32 67 79 0 23 -4 46 -8 52 -11 16
-48 34 -71 34 -20 0 -21 -6 -21 -86z"/>
<path d="M4521 1144 c-49 -63 -5 -156 65 -138 53 13 67 117 20 149 -31 22 -62
18 -85 -11z"/>
<path d="M4809 1168 c-1 -2 -2 -18 -4 -36 -3 -39 10 -47 48 -33 32 12 36 45 8
61 -18 9 -49 14 -52 8z"/>
</g>
</svg>
