<?xml version="1.0" standalone="no"?>
<!DOCTYPE svg PUBLIC "-//W3C//DTD SVG 20010904//EN"
 "http://www.w3.org/TR/2001/REC-SVG-20010904/DTD/svg10.dtd">
<svg version="1.0" xmlns="http://www.w3.org/2000/svg"
 width="236.000000pt" height="236.000000pt" viewBox="0 0 236.000000 236.000000"
 preserveAspectRatio="xMidYMid meet">

<g transform="translate(0.000000,236.000000) scale(0.100000,-0.100000)"
fill="#000000" stroke="none">
<path d="M140 2272 c-60 -30 -70 -64 -70 -245 0 -126 3 -166 16 -193 19 -39
59 -64 104 -64 27 0 30 -3 30 -34 0 -31 -3 -34 -38 -40 -52 -8 -89 -39 -103
-84 -16 -55 -8 -350 10 -378 20 -31 64 -54 100 -54 29 0 31 -3 31 -34 0 -31
-3 -34 -37 -39 -50 -8 -82 -32 -99 -73 -20 -49 -20 -334 1 -378 29 -61 25 -61
430 -66 l370 -5 2 -164 3 -164 27 -30 c177 -185 1037 -207 1301 -32 75 49 72
25 72 655 0 485 -2 565 -15 591 -47 91 -258 159 -538 175 -109 6 -113 7 -138
36 -16 20 -42 34 -75 43 -45 11 -49 15 -49 41 1 26 5 29 45 36 31 5 53 17 73
38 l27 30 0 186 c0 157 -3 189 -17 211 -35 54 -28 53 -755 53 -621 0 -676 -1
-708 -18z m1302 -74 c9 -25 -4 -58 -23 -58 -15 0 -19 -7 -19 -40 0 -38 1 -40
33 -40 17 0 28 -4 22 -8 -14 -10 -17 -32 -4 -32 6 0 4 -7 -5 -15 -8 -8 -22
-15 -30 -15 -12 0 -16 -10 -16 -40 0 -35 3 -40 23 -40 20 0 23 -4 19 -30 l-4
-30 -638 0 c-572 0 -638 2 -644 16 -12 31 -7 319 6 332 17 17 1275 17 1280 0z
m45 -105 c-3 -10 -5 -4 -5 12 0 17 2 24 5 18 2 -7 2 -21 0 -30z m50 5 c-3 -8
-6 -5 -6 6 -1 11 2 17 5 13 3 -3 4 -12 1 -19z m-40 -44 c-3 -3 -12 -4 -19 -1
-8 3 -5 6 6 6 11 1 17 -2 13 -5z m5 -72 c-18 -6 -14 -40 6 -45 12 -4 11 -5 -6
-6 -20 -1 -22 3 -20 33 1 25 6 32 17 28 10 -4 11 -7 3 -10z m-2 -66 c0 -2 -7
-7 -16 -10 -8 -3 -12 -2 -9 4 6 10 25 14 25 6z m-1076 -152 c10 -4 16 -18 16
-35 l0 -29 -70 0 -70 0 0 35 0 35 54 0 c30 0 61 -3 70 -6z m756 -29 l0 -35
-330 0 -330 0 0 35 0 35 330 0 330 0 0 -35z m218 -2 l3 -33 -70 0 -71 0 0 35
0 36 68 -3 67 -3 3 -32z m-128 -129 c-118 -17 -247 -56 -308 -94 -67 -41 -82
-72 -82 -169 l0 -81 -359 0 c-318 0 -360 2 -365 16 -12 31 -7 319 6 332 9 9
156 12 608 11 545 -1 587 -2 500 -15z m622 -79 c153 -23 298 -75 313 -113 13
-36 -60 -77 -197 -111 -146 -36 -248 -44 -483 -38 -253 6 -378 27 -485 80 -81
40 -94 60 -60 87 59 47 239 94 413 110 128 11 376 4 499 -15z m-821 -276 c130
-47 265 -64 519 -64 141 0 253 5 300 14 115 20 229 50 271 72 21 10 41 19 44
19 3 0 5 -60 5 -134 0 -133 0 -135 -26 -155 -36 -28 -122 -59 -229 -83 -132
-29 -486 -36 -649 -14 -133 19 -256 54 -307 89 l-34 23 -3 138 c-2 129 -1 138
15 131 10 -5 52 -20 94 -36z m-648 -76 c11 -3 17 -14 17 -34 l0 -29 -70 0 -70
0 0 35 0 36 53 -2 c28 0 60 -3 70 -6z m462 -28 l0 -30 -182 -3 -183 -2 0 35 0
35 183 -2 182 -3 0 -30z m-5 -295 l0 -180 -359 0 c-318 0 -360 2 -365 16 -12
31 -7 319 6 332 9 9 104 12 365 12 l353 0 0 -180z m175 35 c271 -102 851 -96
1093 11 30 13 56 24 58 24 2 0 4 -60 4 -134 0 -133 0 -135 -26 -155 -36 -29
-117 -57 -236 -83 -92 -20 -130 -22 -363 -22 -231 0 -271 2 -363 22 -119 26
-200 54 -236 83 -26 20 -26 22 -26 156 0 125 1 135 18 128 9 -4 44 -18 77 -30z
m80 -394 c135 -34 252 -46 455 -45 263 0 451 31 603 98 16 8 17 0 15 -129 -3
-134 -4 -138 -28 -157 -37 -27 -151 -64 -260 -84 -135 -26 -535 -26 -667 -1
-113 21 -221 57 -262 86 l-31 22 0 138 0 138 48 -23 c26 -12 83 -31 127 -43z"/>
<path d="M227 2133 c-4 -3 -7 -50 -7 -104 0 -90 2 -99 21 -110 30 -15 187 -8
198 9 13 21 13 169 1 192 -10 18 -20 20 -109 20 -54 0 -101 -3 -104 -7z m138
-103 c0 -16 -4 -30 -10 -30 -5 0 -20 -3 -32 -6 -21 -6 -23 -3 -23 30 0 34 2
36 33 36 30 0 33 -3 32 -30z"/>
<path d="M522 2128 c-14 -14 -16 -176 -2 -198 12 -19 167 -27 199 -11 19 11
21 20 21 104 0 59 -4 97 -12 105 -8 8 -46 12 -103 12 -57 0 -95 -4 -103 -12z
m138 -99 c0 -28 -2 -30 -32 -27 -28 2 -34 8 -36 31 -3 25 -1 27 32 27 33 0 36
-2 36 -31z"/>
<path d="M810 2100 l0 -40 260 0 260 0 0 40 0 40 -260 0 -260 0 0 -40z"/>
<path d="M838 1992 c-25 -3 -28 -7 -28 -43 l0 -39 260 0 260 0 0 43 0 42 -232
0 c-128 0 -245 -1 -260 -3z"/>
<path d="M226 1534 c-3 -9 -6 -56 -6 -104 0 -107 3 -110 112 -110 109 0 118 9
118 119 0 54 -4 91 -12 99 -8 8 -47 12 -109 12 -79 0 -98 -3 -103 -16z m139
-99 c0 -27 -3 -30 -32 -31 -31 -1 -33 1 -33 33 0 33 2 34 33 31 28 -3 32 -6
32 -33z"/>
<path d="M522 1538 c-14 -14 -16 -176 -2 -198 12 -19 167 -27 199 -11 19 11
21 20 21 101 0 48 -3 95 -6 104 -5 13 -24 16 -103 16 -62 0 -101 -4 -109 -12z
m138 -101 c0 -32 -1 -33 -35 -29 -32 4 -35 7 -31 31 2 14 5 27 5 29 1 1 15 2
31 2 27 0 30 -3 30 -33z"/>
<path d="M1552 1033 c3 -35 6 -38 33 -38 27 0 30 3 33 38 3 37 3 37 -33 37
-36 0 -36 0 -33 -37z"/>
<path d="M226 944 c-3 -9 -6 -56 -6 -104 0 -108 3 -110 118 -110 103 0 112 9
112 114 0 115 -1 116 -119 116 -81 0 -100 -3 -105 -16z m139 -99 c0 -27 -4
-30 -33 -33 -31 -3 -32 -2 -32 33 0 35 1 36 33 33 28 -3 32 -6 32 -33z"/>
<path d="M522 948 c-8 -8 -12 -45 -12 -99 0 -114 5 -119 111 -119 116 0 119 2
119 110 0 48 -3 95 -6 104 -5 13 -24 16 -103 16 -62 0 -101 -4 -109 -12z m138
-96 c0 -37 -4 -39 -40 -34 -23 3 -30 9 -30 26 0 30 8 36 42 36 24 0 28 -4 28
-28z"/>
<path d="M1550 625 c0 -33 2 -35 35 -35 33 0 35 2 35 35 0 33 -2 35 -35 35
-33 0 -35 -2 -35 -35z"/>
<path d="M1550 295 c0 -33 2 -35 35 -35 33 0 35 2 35 35 0 33 -2 35 -35 35
-33 0 -35 -2 -35 -35z"/>
</g>
</svg>
