<?xml version="1.0" standalone="no"?>
<!DOCTYPE svg PUBLIC "-//W3C//DTD SVG 20010904//EN"
 "http://www.w3.org/TR/2001/REC-SVG-20010904/DTD/svg10.dtd">
<svg version="1.0" xmlns="http://www.w3.org/2000/svg"
 width="730.000000pt" height="493.000000pt" viewBox="0 0 730.000000 493.000000"
 preserveAspectRatio="xMidYMid meet">

<g transform="translate(0.000000,493.000000) scale(0.100000,-0.100000)"
fill="#000000" stroke="none">
<path d="M3050 3719 c0 -5 10 -9 23 -9 12 0 66 -15 119 -34 110 -38 124 -33
21 7 -77 30 -163 49 -163 36z"/>
<path d="M4678 3723 c7 -3 16 -2 19 1 4 3 -2 6 -13 5 -11 0 -14 -3 -6 -6z"/>
<path d="M1401 3716 c2 -3 44 -18 93 -34 102 -35 104 -25 3 13 -60 22 -108 33
-96 21z"/>
<path d="M4720 3715 c0 -2 26 -12 58 -21 31 -9 76 -25 100 -35 61 -26 52 -13
-10 15 -70 32 -148 54 -148 41z"/>
<path d="M6360 3715 c0 -2 26 -12 58 -21 31 -9 77 -26 102 -36 25 -11 41 -15
35 -9 -24 24 -195 82 -195 66z"/>
<path d="M1590 3646 c0 -2 7 -7 16 -10 8 -3 12 -2 9 4 -6 10 -25 14 -25 6z"/>
<path d="M1178 3628 c-280 -25 -509 -229 -577 -514 -17 -70 -20 -269 -6 -324
16 -57 66 -160 76 -154 4 2 10 -5 14 -16 10 -32 146 -162 208 -199 269 -160
603 -122 818 93 44 43 79 85 79 93 0 7 7 16 15 19 8 4 12 10 9 15 -3 5 0 9 5
9 6 0 10 3 9 8 -1 4 8 34 21 67 33 87 53 208 46 285 -16 178 -95 350 -209 453
-89 81 -109 97 -118 91 -7 -5 -8 -2 -3 6 6 10 4 12 -9 7 -9 -4 -15 -3 -12 2 5
7 -46 36 -99 57 -26 10 -169 11 -267 2z m332 -105 c14 -9 28 -21 31 -26 4 -5
17 -14 30 -21 22 -10 53 -56 44 -64 -5 -5 -46 18 -69 40 -13 12 -29 17 -42 14
-15 -4 -32 4 -58 30 -20 19 -36 37 -36 39 0 13 79 3 100 -12z m-277 -86 c7
-12 24 -40 39 -62 25 -37 50 -109 33 -93 -9 9 -65 -59 -65 -78 0 -8 -6 -13
-12 -11 -7 1 -14 -9 -16 -22 -5 -32 6 -71 20 -71 6 0 20 -8 31 -17 19 -17 19
-17 12 6 -5 16 -3 26 6 32 11 7 11 11 2 17 -10 6 -7 16 11 41 24 32 24 32 39
11 10 -15 16 -17 19 -8 3 7 12 -9 21 -36 9 -27 15 -52 12 -55 -3 -3 -8 5 -12
17 -5 22 -6 22 -32 -7 -27 -30 -79 -67 -85 -60 -1 2 -11 15 -20 29 -17 24 -18
23 -12 -65 9 -149 12 -563 4 -571 -5 -4 -8 11 -8 34 0 33 -7 50 -33 79 -49 56
-71 91 -95 153 -56 146 -56 313 -2 480 10 30 21 69 25 85 7 33 43 112 61 135
7 8 18 35 25 60 10 35 14 40 17 22 2 -12 9 -33 15 -45z m17 -307 c0 -5 -5 -10
-11 -10 -5 0 -7 5 -4 10 3 6 8 10 11 10 2 0 4 -4 4 -10z m160 -95 c0 -5 -5 -3
-10 5 -5 8 -10 20 -10 25 0 6 5 3 10 -5 5 -8 10 -19 10 -25z m-150 -15 c0 -5
-5 -10 -11 -10 -5 0 -7 5 -4 10 3 6 8 10 11 10 2 0 4 -4 4 -10z m126 -34 c-6
-19 -13 -30 -17 -25 -4 7 -12 5 -22 -5 -19 -19 -27 -20 -27 -3 0 14 62 76 71
71 3 -2 1 -19 -5 -38z m31 -8 c-3 -7 -5 -2 -5 12 0 14 2 19 5 13 2 -7 2 -19 0
-25z m-35 -59 c-20 -18 -21 -18 -19 1 1 10 5 16 9 14 5 -3 11 3 15 12 4 12 8
14 11 5 2 -7 -5 -21 -16 -32z m33 -176 c-9 -24 -21 -45 -26 -48 -5 -4 -6 1 -3
9 4 11 0 14 -15 11 -26 -5 -26 0 0 26 11 11 18 24 14 27 -3 4 -9 1 -13 -5 -12
-19 -29 -1 -36 41 -7 37 -5 41 39 83 26 23 44 43 40 43 -3 0 -3 6 2 13 4 7 9
-25 11 -73 2 -60 -2 -97 -13 -127z m-45 -53 c0 -5 -5 -10 -11 -10 -5 0 -7 5
-4 10 3 6 8 10 11 10 2 0 4 -4 4 -10z"/>
<path d="M1172 3369 c-8 -12 -16 -33 -18 -47 l-5 -26 27 29 c15 16 22 31 16
33 -6 2 -8 10 -5 18 8 21 0 17 -15 -7z"/>
<path d="M1176 3295 c-9 -26 -7 -32 5 -12 6 10 9 21 6 23 -2 3 -7 -2 -11 -11z"/>
<path d="M2863 3629 c-152 -14 -283 -78 -398 -194 -84 -84 -121 -146 -166
-275 -18 -52 -23 -92 -26 -202 -3 -120 -1 -144 18 -200 32 -92 57 -127 182
-250 52 -52 89 -78 160 -112 118 -56 178 -70 302 -70 184 2 338 65 459 188 87
89 84 85 124 174 44 99 62 180 62 282 0 215 -93 407 -261 540 -27 21 -45 41
-41 44 3 4 -2 4 -13 0 -11 -4 -17 -3 -12 1 4 5 -23 24 -60 43 -62 32 -75 35
-163 36 -52 1 -127 -1 -167 -5z m-138 -400 c52 -15 119 -82 134 -134 6 -22 11
-64 11 -92 l0 -53 -166 0 -167 0 6 -37 c4 -20 19 -49 33 -65 23 -23 36 -28 77
-28 42 0 53 5 77 30 24 26 35 30 79 30 62 0 66 -16 22 -77 -37 -52 -90 -76
-174 -81 -125 -8 -211 59 -237 185 -19 88 8 210 58 267 48 54 160 79 247 55z
m364 -74 c23 -41 46 -77 51 -80 5 -3 30 31 55 75 l47 80 65 0 c48 0 64 -3 60
-13 -2 -6 -37 -58 -76 -115 -39 -57 -71 -107 -71 -113 0 -5 35 -64 79 -131
l79 -123 -61 -3 c-33 -2 -66 -1 -72 2 -7 2 -32 41 -56 85 -24 45 -46 81 -49
81 -3 0 -24 -36 -48 -81 -24 -44 -49 -82 -56 -85 -7 -3 -38 -4 -69 -2 l-56 3
74 115 c41 63 75 119 75 124 0 5 -32 61 -71 125 -39 64 -73 119 -76 124 -2 4
27 7 64 7 l69 0 43 -75z m-565 -614 c33 -30 88 -69 121 -87 53 -30 56 -33 28
-30 -31 3 -59 18 -75 41 -4 6 -8 6 -8 2 0 -10 -19 5 -91 73 -31 30 -55 58 -53
62 3 4 0 8 -6 8 -6 0 -8 5 -4 12 5 8 10 6 17 -8 5 -10 37 -43 71 -73z"/>
<path d="M2591 3134 c-21 -15 -51 -70 -51 -94 0 -6 39 -10 105 -10 99 0 105 1
105 20 0 78 -95 128 -159 84z"/>
<path d="M4486 3628 c-214 -25 -412 -162 -504 -349 -59 -121 -74 -190 -75
-344 -1 -113 2 -138 22 -188 12 -31 29 -64 37 -72 9 -8 12 -15 7 -15 -4 0 -3
-4 2 -8 6 -4 26 -27 44 -52 154 -204 412 -310 651 -268 272 49 457 216 526
478 21 83 21 246 -1 332 -34 130 -116 261 -213 341 -26 22 -58 50 -71 63 -13
13 -27 21 -32 18 -5 -3 -9 -1 -9 4 0 5 -26 22 -57 37 -50 24 -72 28 -158 29
-55 1 -131 -2 -169 -6z m16 -297 l58 -40 58 40 c70 49 117 61 160 43 49 -20
65 -64 59 -161 l-5 -82 45 -17 c108 -42 160 -111 129 -172 -21 -42 -69 -79
-126 -99 l-48 -17 5 -86 c4 -72 2 -90 -15 -120 -36 -66 -116 -64 -207 5 -25
19 -50 35 -55 35 -5 0 -30 -16 -55 -35 -91 -69 -171 -71 -207 -5 -16 29 -19
49 -15 121 l4 85 -50 18 c-27 10 -68 35 -90 56 -33 31 -41 44 -41 74 0 52 30
86 112 126 l71 35 -6 75 c-7 94 11 144 58 164 44 18 90 6 161 -43z m-344 -788
c25 -24 65 -56 91 -73 25 -16 51 -34 57 -39 7 -5 15 -8 18 -5 3 2 2 -1 -2 -7
-11 -12 -64 9 -56 22 3 5 -2 9 -12 9 -19 0 -96 58 -131 99 -36 41 -39 45 -42
56 -2 6 -7 19 -13 30 -5 11 3 4 18 -15 15 -19 48 -54 72 -77z"/>
<path d="M4339 3323 c-16 -19 -19 -157 -4 -172 6 -6 30 -5 67 2 49 10 61 18
92 57 l35 45 -21 22 c-27 29 -97 63 -130 63 -14 0 -32 -7 -39 -17z"/>
<path d="M4691 3329 c-13 -5 -41 -23 -62 -40 l-38 -30 36 -49 c33 -45 41 -49
96 -59 34 -6 62 -9 64 -7 2 2 6 35 9 72 6 85 -8 118 -51 121 -17 1 -41 -2 -54
-8z"/>
<path d="M4536 3198 c-23 -33 -20 -38 24 -38 45 0 46 1 24 35 -20 31 -29 31
-48 3z"/>
<path d="M4463 3096 c-10 -13 -30 -44 -43 -69 -24 -44 -24 -47 -7 -81 9 -20
28 -54 42 -76 l26 -41 82 3 82 3 37 65 c21 36 38 71 38 79 0 8 -17 43 -37 78
l-37 63 -82 0 c-75 0 -84 -2 -101 -24z m152 -61 c31 -30 32 -73 4 -109 -45
-57 -139 -19 -139 56 0 39 40 78 80 78 19 0 40 -9 55 -25z"/>
<path d="M4362 3101 c-11 -7 -11 -13 0 -40 l13 -31 23 40 23 40 -23 0 c-13 0
-29 -4 -36 -9z"/>
<path d="M4722 3070 l23 -40 15 31 c12 26 12 31 0 39 -8 6 -25 10 -38 10 l-23
0 23 -40z"/>
<path d="M4256 3074 c-101 -37 -133 -95 -78 -146 26 -25 92 -58 116 -58 7 0
22 23 34 52 l22 52 -21 58 c-12 32 -24 58 -28 57 -3 0 -24 -7 -45 -15z"/>
<path d="M4804 3063 c-4 -15 -13 -40 -20 -54 -11 -22 -10 -34 8 -82 12 -32 27
-57 35 -57 26 0 88 31 116 57 58 57 15 119 -110 157 -19 6 -23 2 -29 -21z"/>
<path d="M4360 2890 c-15 -36 -15 -35 28 -43 l32 -7 -20 40 c-11 22 -22 40
-24 40 -2 0 -9 -14 -16 -30z"/>
<path d="M4720 2880 c-19 -37 -19 -42 -5 -36 9 3 26 6 37 6 17 0 19 4 13 28
-11 46 -22 46 -45 2z"/>
<path d="M4326 2779 c-13 -66 -7 -117 18 -145 22 -27 25 -27 63 -16 22 7 59
29 82 50 l41 37 -43 47 c-38 42 -48 47 -98 53 l-56 6 -7 -32z"/>
<path d="M4706 2800 c-28 -5 -48 -19 -76 -51 l-38 -44 26 -28 c35 -37 107 -70
136 -63 40 10 57 80 40 165 -7 34 -14 35 -88 21z"/>
<path d="M4520 2782 c0 -5 9 -17 20 -27 19 -17 21 -17 40 0 29 27 25 35 -20
35 -22 0 -40 -4 -40 -8z"/>
<path d="M6225 3631 l-90 -6 95 -7 c238 -16 431 -145 542 -361 41 -79 52 -73
14 8 -38 82 -111 171 -191 235 -42 33 -73 60 -68 60 13 0 -49 35 -92 52 -54
21 -104 26 -210 19z"/>
<path d="M6083 3613 c9 -2 25 -2 35 0 9 3 1 5 -18 5 -19 0 -27 -2 -17 -5z"/>
<path d="M6038 3603 c7 -3 16 -2 19 1 4 3 -2 6 -13 5 -11 0 -14 -3 -6 -6z"/>
<path d="M5980 3590 c-18 -12 -2 -12 25 0 13 6 15 9 5 9 -8 0 -22 -4 -30 -9z"/>
<path d="M5874 3539 c-111 -66 -236 -201 -249 -269 -3 -16 11 -7 54 38 32 32
62 69 65 80 4 12 13 21 19 19 7 -1 11 6 9 15 -2 13 2 16 14 11 13 -5 16 -3 11
10 -4 11 -2 14 9 10 8 -3 14 1 14 11 0 9 6 16 13 16 19 0 49 35 40 45 -5 4 -1
6 7 3 8 -2 21 1 30 9 8 7 24 19 35 27 41 31 -3 15 -71 -25z"/>
<path d="M2215 3195 c-25 -81 -23 -117 6 -149 l25 -27 15 81 c9 44 13 78 11
75 -8 -8 -32 16 -26 26 3 5 1 9 -4 9 -6 0 -8 9 -5 20 12 44 -5 16 -22 -35z"/>
<path d="M542 3218 c-25 -31 -44 -167 -22 -153 6 3 10 -4 10 -17 0 -18 2 -20
10 -8 8 13 10 12 10 -4 0 -40 13 -4 25 69 9 61 9 75 -2 75 -13 0 -17 12 -14
38 1 6 0 12 -2 12 -3 0 -9 -6 -15 -12z"/>
<path d="M5496 3208 c-25 -38 -35 -148 -13 -140 4 1 7 -3 7 -9 0 -6 6 -17 14
-25 13 -12 15 -12 21 5 13 44 15 158 1 176 -13 18 -14 17 -30 -7z"/>
<path d="M3849 3193 c-20 -54 -23 -120 -5 -138 9 -9 16 -24 16 -33 0 -38 27
25 37 84 8 57 8 63 -14 88 l-23 27 -11 -28z"/>
<path d="M5571 3149 c-35 -106 -35 -328 0 -408 12 -28 26 -51 31 -51 5 0 7 -4
4 -9 -4 -5 -3 -11 1 -13 5 -1 22 -23 38 -48 44 -64 144 -160 209 -199 203
-122 460 -129 671 -18 136 72 235 191 292 352 29 80 43 264 25 325 -10 35 -10
35 -11 -17 -1 -29 -5 -53 -11 -53 -5 0 -10 -12 -11 -27 0 -16 -4 -37 -9 -48
l-8 -20 -7 20 c-20 59 -23 62 -30 28 -4 -18 -14 -33 -21 -33 -8 0 -14 -10 -14
-23 0 -13 -9 -32 -19 -41 -11 -10 -22 -28 -25 -41 -8 -33 -35 -40 -46 -12 -8
21 -9 21 -11 2 -1 -11 -3 -30 -4 -43 -2 -15 1 -19 9 -13 8 6 11 1 13 -16 1
-19 -1 -22 -8 -12 -7 11 -12 12 -26 2 -10 -7 -42 -26 -72 -44 -42 -24 -51 -33
-40 -41 11 -8 10 -9 -4 -4 -24 8 -100 -31 -91 -46 4 -7 3 -8 -4 -4 -18 11 -37
-4 -21 -16 11 -8 10 -9 -4 -4 -22 7 -68 -14 -60 -27 3 -6 1 -7 -5 -3 -6 4 -25
0 -41 -9 -42 -21 -79 -19 -129 10 -24 14 -49 22 -55 18 -7 -3 -8 -2 -4 2 4 5
-2 14 -14 21 -23 12 -37 48 -16 41 12 -4 67 19 67 29 0 2 -10 0 -21 -7 -12 -6
-37 -9 -55 -6 -19 3 -47 2 -63 -3 -17 -4 -34 -4 -42 2 -11 8 -10 9 4 4 47 -15
0 15 -91 59 -18 9 -37 27 -42 40 -5 14 -12 25 -15 25 -2 0 -1 -10 4 -23 7 -18
5 -23 -8 -23 -13 0 -16 7 -13 23 3 15 0 23 -9 23 -8 0 -23 13 -34 29 -11 17
-28 32 -38 35 -16 4 -18 12 -13 53 4 36 3 41 -3 18 l-9 -30 -1 27 c0 15 -8 33
-16 42 -10 9 -15 34 -15 71 0 35 -4 54 -10 50 -13 -8 -13 -117 0 -184 5 -28
22 -82 36 -119 69 -172 206 -299 404 -372 l55 -20 -44 5 c-165 21 -343 157
-420 319 -61 129 -74 206 -59 352 7 67 7 108 0 119 -8 16 -11 13 -21 -16z m78
-246 c0 -25 -1 -26 -9 -8 -12 27 -12 35 0 35 6 0 10 -12 9 -27z m951 -203 c-8
-5 -19 -10 -25 -10 -5 0 -3 5 5 10 8 5 20 10 25 10 6 0 3 -5 -5 -10z m-50 -24
c0 -2 -7 -7 -16 -10 -8 -3 -12 -2 -9 4 6 10 25 14 25 6z m-538 -43 c-6 -2 -10
-9 -6 -14 6 -11 -7 -12 -33 -2 -16 6 -15 8 7 14 29 8 51 10 32 2z"/>
<path d="M5240 3141 c0 -5 5 -13 10 -16 6 -3 10 -2 10 4 0 5 -4 13 -10 16 -5
3 -10 2 -10 -4z"/>
<path d="M491 2844 c0 -11 3 -14 6 -6 3 7 2 16 -1 19 -3 4 -6 -2 -5 -13z"/>
<path d="M2186 2810 c8 -47 37 -128 58 -165 10 -16 14 -21 10 -10 -4 11 -22
63 -41 115 -18 52 -31 79 -27 60z"/>
<path d="M506 2785 c3 -22 19 -67 35 -100 31 -64 31 -63 -12 60 -20 57 -27 68
-23 40z"/>
<path d="M3826 2785 c6 -39 68 -185 79 -185 3 0 -4 19 -17 43 -12 23 -32 74
-44 112 -17 52 -22 59 -18 30z"/>
<path d="M5463 2789 c5 -34 46 -143 52 -137 2 2 -10 41 -27 88 -17 50 -27 70
-25 49z"/>
<path d="M6130 2642 c0 -4 9 -13 20 -20 19 -12 20 -11 8 8 -13 20 -28 27 -28
12z"/>
<path d="M6275 2639 c-4 -6 -13 -8 -19 -6 -7 3 -13 -1 -13 -8 0 -10 5 -11 16
-5 35 20 46 30 34 30 -6 0 -15 -5 -18 -11z"/>
<path d="M6186 2599 c3 -5 11 -9 19 -9 8 0 16 4 19 9 3 5 -5 9 -19 9 -14 0
-22 -4 -19 -9z"/>
<path d="M1489 2345 c-20 -7 -72 -21 -115 -30 -44 -10 -81 -19 -83 -21 -2 -2
5 -12 17 -22 12 -11 19 -22 15 -26 -23 -22 143 13 212 45 l45 21 -23 24 c-25
27 -21 27 -68 9z"/>
<path d="M6440 2346 c-14 -8 -61 -22 -105 -31 -44 -10 -82 -19 -84 -21 -2 -2
5 -12 17 -22 12 -11 19 -22 15 -26 -13 -13 112 7 167 27 60 21 94 46 73 54 -7
2 -9 11 -6 19 7 18 -42 18 -77 0z"/>
<path d="M3144 2335 c-16 -6 -59 -18 -96 -25 -37 -7 -66 -16 -63 -20 3 -5 -3
-11 -12 -13 -15 -4 -15 -5 3 -6 11 0 25 -6 32 -13 17 -17 94 -11 156 12 61 23
92 50 58 50 -11 0 -27 6 -34 14 -12 11 -20 11 -44 1z"/>
<path d="M4735 2325 c-44 -13 -93 -24 -109 -24 -28 -1 -29 -1 -11 -21 10 -11
25 -20 34 -20 14 0 14 -2 1 -11 -23 -16 72 -3 149 21 65 20 81 31 81 63 0 23
-43 21 -145 -8z"/>
<path d="M2774 1651 c-2 -2 -4 -94 -4 -203 l0 -198 144 0 144 0 4 35 4 34
-106 3 -105 3 0 50 c0 33 4 50 13 51 6 1 50 2 97 3 l85 1 0 30 0 30 -85 1
c-47 1 -91 2 -97 3 -8 0 -14 19 -16 43 l-3 42 103 3 103 3 0 30 0 30 -138 5
c-76 3 -141 3 -143 1z"/>
<path d="M970 1450 l0 -200 35 0 35 0 2 178 3 177 28 -110 c15 -60 37 -140 48
-177 19 -66 21 -68 53 -68 37 0 27 -24 102 240 l33 115 0 -177 1 -178 40 0 40
0 0 200 0 200 -59 0 -59 0 -36 -107 c-19 -60 -40 -128 -47 -153 l-12 -45 -9
35 c-5 19 -23 88 -40 153 l-31 117 -63 0 -64 0 0 -200z"/>
</g>
</svg>
